<?xml version="1.0" encoding="UTF-8"?>
<!DOCTYPE svg PUBLIC "-//W3C//DTD SVG 1.1//EN" "http://www.w3.org/Graphics/SVG/1.1/DTD/svg11.dtd">
<!-- Creator: CorelDRAW X8 -->
<svg xmlns="http://www.w3.org/2000/svg" xml:space="preserve" width="50.7998mm" height="29.6332mm" version="1.1" style="shape-rendering:geometricPrecision; text-rendering:geometricPrecision; image-rendering:optimizeQuality; fill-rule:evenodd; clip-rule:evenodd"
viewBox="0 0 5080 2963"
 xmlns:xlink="http://www.w3.org/1999/xlink">
 <defs>
  <style type="text/css">
   <![CDATA[
    .fil2 {fill:#056305}
    .fil1 {fill:#19890A}
    .fil16 {fill:#20B7EE}
    .fil18 {fill:#229C9A}
    .fil7 {fill:#25B8EE}
    .fil10 {fill:#269D9B}
    .fil12 {fill:#7E4C03}
    .fil17 {fill:#885714}
    .fil6 {fill:#BC6F12}
    .fil0 {fill:#E52929}
    .fil14 {fill:#E81065}
    .fil9 {fill:#E8AF58}
    .fil8 {fill:#F17188}
    .fil11 {fill:#FACEAE}
    .fil5 {fill:#FBB513}
    .fil4 {fill:#FCCEAF}
    .fil13 {fill:#FCD2B4}
    .fil3 {fill:#FFAE00}
    .fil15 {fill:white}
   ]]>
  </style>
 </defs>
 <g id="Camada_x0020_1">
  <metadata id="CorelCorpID_0Corel-Layer"/>
  <path class="fil0" d="M750 1713c-82,0 -170,-23 -230,-48 -75,-31 -154,-89 -204,-153 -61,-76 -96,-134 -119,-237 -80,-358 180,-684 547,-693 258,-6 486,180 552,435 50,196 -26,435 -184,559 -47,38 -67,56 -129,84 -61,29 -165,53 -233,53zm454 213c-24,-100 -47,-159 4,-262 17,-36 47,-67 69,-87 32,-29 59,-39 100,-55 30,-64 64,-191 76,-276 28,-196 -27,-387 -143,-536 -51,-65 -112,-124 -183,-166 -76,-46 -151,-80 -251,-98 -105,-20 -228,-11 -317,13 -167,46 -314,150 -407,293 -233,357 -73,713 85,1067l176 344c24,38 41,76 65,114 90,150 165,285 265,434 24,-17 103,-150 123,-183 91,-153 207,-342 285,-499 18,-36 33,-72 53,-103z"/>
  <polygon class="fil1" points="1762,2069 1926,2069 1926,1862 2111,1862 2111,2069 2268,2069 2268,1520 2111,1520 2111,1720 1926,1720 1926,1520 1762,1520 "/>
  <path class="fil1" d="M2354 2069l456 0c0,-88 13,-135 -21,-135l-278 0 0 -79 263 0 0 -128 -263 0 0 -71 271 0c34,0 21,-48 21,-136l-449 0 0 549z"/>
  <path class="fil1" d="M3452 2069l164 0 0 -135c0,-28 33,-28 42,-65 20,15 130,177 136,200l192 0c-15,-29 -31,-51 -51,-77l-163 -237 207 -235c-208,0 -166,-26 -263,94l-100 113 0 -207 -164 0 0 549z"/>
  <path class="fil1" d="M2867 1763l0 57c0,210 263,331 439,225 34,-20 79,-57 89,-97 -37,-10 -80,-62 -114,-71 -18,11 -64,64 -122,64 -180,0 -154,-285 -28,-285 38,0 120,-1 135,57 34,-3 11,3 35,-16l94 -70c-125,-186 -405,-142 -495,26 -11,21 -33,81 -33,110z"/>
  <path class="fil1" d="M1377 1522c-41,16 -68,26 -100,55 -22,20 -52,51 -69,87 -51,103 -28,162 -4,262 23,32 24,44 60,78l30 27c153,115 386,23 411,-83 -37,-10 -80,-62 -114,-71 -25,16 -73,78 -151,59 -115,-29 -113,-162 -84,-216 30,-57 93,-82 159,-60 11,4 27,14 37,21 21,14 18,7 25,32 35,-3 9,1 66,-41 23,-17 40,-30 62,-45 -70,-105 -205,-146 -328,-105z"/>
  <path class="fil2" d="M3972 1805l0 43c51,-1 43,-30 115,-63 17,-8 29,-11 49,-15 -16,32 -38,84 -46,125 -21,96 33,164 149,78 2,-2 6,-6 8,-7l33 -24c15,-12 20,-21 37,-34 22,-17 20,-19 37,-34l28 -15c28,-14 10,-14 68,-46l22 -14c14,-8 1,-1 13,-8l-27 58c-44,54 -58,41 -58,113 0,38 19,49 57,50 8,-30 5,-14 31,-33 9,-6 34,-30 37,-32 18,-10 9,9 33,-19l36 -36c100,-81 49,-48 162,-108 0,16 3,28 4,38 6,87 -22,190 110,190 15,0 47,-27 57,-36l26 -24c12,-10 17,-12 28,-21 86,-66 75,-78 75,-126 -47,4 -112,79 -139,97 -20,15 -27,25 -54,32 -11,-47 -20,-13 -5,-62 33,-117 2,-259 -199,-107 -15,12 -16,8 -27,16 -18,13 -8,12 -47,39 17,-74 7,-129 -85,-129 -11,39 -89,73 -151,114 -11,7 -23,18 -36,28l-77 51c-21,11 -24,19 -50,21 0,-74 61,-156 45,-202 -22,-66 -77,-40 -114,-9 -17,14 -145,86 -145,111z"/>
  <g id="_1543610025488">
   <path class="fil3" d="M3117 1185l-35 0 0 -278c111,0 194,18 201,126 7,101 -51,152 -166,152zm-199 136c156,0 342,25 440,-73 79,-79 87,-114 87,-227 0,-142 -133,-249 -278,-249l-249 0 0 549z"/>
   <path class="fil3" d="M2091 1321l164 0 0 -136c0,-27 33,-28 43,-64 19,14 129,176 135,200l193 0 -214 -314 206 -235c-208,0 -166,-26 -262,93l-101 113 0 -206 -164 0 0 549z"/>
   <path class="fil3" d="M3502 936c0,213 300,143 300,235 0,54 -140,24 -202,-12 -19,-11 -18,-13 -33,-24 -21,15 -84,88 -86,114 20,6 166,134 359,67 85,-28 147,-114 116,-213 -49,-154 -290,-99 -290,-182 0,-29 36,-28 57,-28 77,0 95,37 150,50 19,-29 64,-81 71,-114 -78,-42 -121,-72 -221,-72 -111,0 -221,63 -221,179z"/>
   <polygon class="fil3" points="2668,1321 2825,1321 2825,772 2668,772 "/>
  </g>
  <path class="fil2" d="M4286 1506c79,0 42,-107 14,-107 -92,0 -53,107 -14,107z"/>
  <path class="fil4" d="M1439 1190c10,-7 -7,-7 19,0l138 41c1,0 3,3 3,2 1,-1 3,2 3,3l23 -4c-6,16 -31,33 -49,43 -81,42 -171,-11 -168,-101 21,5 18,3 31,16zm174 -73c8,-20 22,-30 52,-22 22,6 31,23 25,50 -13,-49 -51,-47 -77,-28zm-194 -50c18,-46 80,-32 80,20 -27,-41 -38,-43 -80,-20zm-195 18l-29 2c-22,45 -1,49 44,57 13,54 42,100 69,135 37,47 57,51 123,81l-2 20 2 20c20,8 32,12 58,1l3 -21 1 -14c98,-10 157,-39 210,-111 16,-22 27,-52 41,-71 22,-7 44,-2 53,-20 15,-27 -11,-36 -34,-36 -14,-8 4,-45 -25,-118 -31,-3 -67,1 -104,-3 -117,-14 -138,-39 -226,-76 -11,18 -25,32 -39,50 -16,20 -28,30 -45,47 -15,16 -76,81 -95,81l-5 -24z"/>
  <path class="fil5" d="M1224 1085l5 24c19,0 80,-65 95,-81 17,-17 29,-27 45,-47 14,-18 28,-32 39,-50 88,37 109,62 226,76 37,4 73,0 104,3 29,73 11,110 25,118 22,-60 18,-64 9,-129 59,-13 102,-55 116,-113 -35,9 -49,18 -91,20l6 -8c17,-20 29,-23 38,-51 -50,16 -70,30 -133,32 31,-31 50,-40 62,-89 -73,22 -58,47 -204,41 -79,-3 -158,7 -188,62 -62,-10 -101,-13 -134,35 -32,45 -28,98 -20,157z"/>
  <path class="fil4" d="M646 1143c31,-4 55,17 115,5 12,-3 35,-11 45,-16 33,-18 3,-19 37,-26 -31,104 -155,88 -197,37zm-129 -106c-36,-2 -61,36 9,53 1,0 3,1 4,1 14,16 10,80 130,129 44,18 58,5 60,23 1,37 22,31 49,23l2 -21 1 -14c95,-18 142,-87 175,-168 66,-5 52,-36 28,-48 -89,32 -208,-91 -227,-138l-13 15c-56,76 -105,125 -214,159l-4 -14z"/>
  <path class="fil6" d="M573 894l-35 41c-13,44 -19,47 -21,102l4 14c109,-34 158,-83 214,-159l13 -15c19,47 138,170 227,138 -8,-6 -7,-5 -12,-17 -3,-8 -5,-18 -9,-27 -7,-19 -18,-31 -23,-46 -15,-9 -8,-5 -19,-19 -6,-8 -10,-11 -17,-19 -22,-11 -36,-27 -70,-36 -26,-7 -148,-12 -188,4 -32,14 -42,26 -64,39z"/>
  <path class="fil7" d="M1312 1387c10,18 32,26 44,42 12,15 17,47 22,66 8,28 29,110 62,111 34,-13 64,-21 95,-36 40,-18 51,-35 78,-52 -17,-23 -47,-49 -66,-69 11,-10 20,-7 32,-13 15,-6 7,-1 12,-8l-11 -45c-20,-10 -60,0 -88,-3l-3 21c-26,11 -38,7 -58,-1l-2 -20c-19,-4 -35,-10 -51,-19 -16,-9 -28,-24 -42,-20 -7,19 -10,31 -24,46z"/>
  <path class="fil8" d="M577 1267c25,19 36,13 75,13l-39 91c84,29 151,37 236,5l-24 -85c19,-3 37,-6 56,-8 49,-8 32,-7 46,-21 -15,-8 -14,-3 -11,-28 -42,-12 -104,-1 -145,11l-2 21c-27,8 -48,14 -49,-23 -36,-3 -103,-30 -137,-7 4,15 4,3 1,19 -3,15 8,2 -7,12z"/>
  <path class="fil9" d="M1440 1606c3,50 10,99 26,141 22,4 18,-1 33,8l16 -11c4,-2 21,-6 26,-8l10 13 -2 -17 24 -14 -18 -86c111,3 112,14 127,-26l33 0c-9,-4 -8,-2 -16,-5 -9,-3 -7,-2 -10,-5l17 -43 -1 -13 -92 -22c-27,17 -38,34 -78,52 -31,15 -61,23 -95,36z"/>
  <path class="fil10" d="M602 1467l57 21c53,5 80,8 137,6 19,-8 49,-16 62,-11 12,-18 18,-6 42,-24l6 -6c-11,-19 -39,-38 -57,-77 -85,32 -152,24 -236,-5l-47 44c-19,17 -7,2 -16,21 11,4 39,22 52,31z"/>
  <path class="fil11" d="M916 1234c-3,25 -4,20 11,28 54,-13 92,-58 147,-53 -20,17 -18,1 -15,24 34,3 49,-24 84,-8 19,9 49,40 60,52 36,38 66,69 109,110 14,-15 17,-27 24,-46 -17,-9 -101,-80 -114,-93 -23,-24 -35,-34 -49,-58 -24,-37 -7,-54 -19,-87 -22,7 -19,21 -20,46 -23,-2 -22,0 -39,-8 -21,-11 -30,-5 -63,7 -1,-1 -2,-4 -2,-3 -3,9 -3,-6 -4,-7 -13,-28 -3,-19 -19,-24 -12,27 13,51 -17,84 -15,18 -42,30 -74,36z"/>
  <path class="fil11" d="M1580 1383l11 45c74,-26 183,-94 213,-91 30,3 34,35 66,33 2,-29 -12,-11 -23,-38 19,4 29,15 46,4 -7,-10 -7,-10 -23,-19 -14,-8 -15,-6 -24,-17 8,1 18,3 26,2l21 -6c-16,-19 -45,-17 -70,-23 4,-20 12,-27 2,-47 -32,10 -5,56 -94,102 -39,19 -105,46 -151,55z"/>
  <path class="fil11" d="M577 1267c15,-10 4,3 7,-12 3,-16 3,-4 -1,-19 -154,-29 -95,-95 -111,-129 -15,6 -4,-2 -14,12l-11 20c-23,-9 -38,-18 -65,-14 9,21 18,12 26,25 -24,1 -29,-2 -44,8 6,8 -1,2 9,8l34 13c-20,3 -33,-1 -43,15 38,25 24,-27 113,31 24,15 66,35 100,42z"/>
  <path class="fil6" d="M921 877l18 26c48,-1 47,-10 67,-40 62,0 36,-11 61,-34l49 26c-6,-50 -27,-74 -54,-99l-3 0 -13 52c-39,-3 -55,2 -62,38 -34,3 -51,5 -63,31z"/>
  <path class="fil6" d="M355 863l50 -26c21,31 15,37 63,34 7,36 26,39 63,44 8,-15 11,-16 18,-28 -12,-22 -28,-30 -61,-30 -4,-18 -9,-28 -21,-35 -11,-6 -7,-3 -20,-6 -5,-1 -9,-1 -14,-2 -1,0 -3,1 -4,-1 -1,-1 -3,0 -4,-1l-14 -44c-42,24 -32,37 -56,78l0 17z"/>
  <path class="fil12" d="M1602 1236c-55,27 -143,-5 -163,-46 -13,-13 -10,-11 -31,-16 -3,90 87,143 168,101 18,-10 43,-27 49,-43l-23 4z"/>
  <path class="fil4" d="M1499 1755c3,32 18,72 38,84 33,18 66,-14 86,-29 -2,-29 -6,-20 -11,-42 -33,21 -53,25 -61,-19l-10 -13c-5,2 -22,6 -26,8l-16 11z"/>
  <path class="fil4" d="M1715 1606l116 17 7 -38c-32,-25 -86,-27 -132,-32l-17 43c3,3 1,2 10,5 8,3 7,1 16,5z"/>
  <path class="fil12" d="M646 1143c42,51 166,67 197,-37 -34,7 -4,8 -37,26 -10,5 -33,13 -45,16 -60,12 -84,-9 -115,-5z"/>
  <path class="fil13" d="M557 1537c2,11 -3,1 5,10 4,5 6,6 11,9 10,6 16,8 28,12 13,-27 40,-54 58,-80l-57 -21c-9,21 -30,43 -45,70z"/>
  <path class="fil14" d="M849 1567c7,18 26,45 45,54 17,-3 31,-12 41,-20 17,-15 18,-24 12,-48 -15,-3 -22,1 -28,0 -21,-3 -2,-4 -24,-13 -12,13 -27,23 -46,27z"/>
  <path class="fil14" d="M601 1568c-12,-4 -18,-6 -28,-12 -5,-3 -7,-4 -11,-9 -8,-9 -3,1 -5,-10 -5,5 -12,14 -20,16 0,0 -44,-8 -36,25 2,9 8,14 14,20 13,13 25,22 49,23 10,-15 29,-33 37,-53z"/>
  <path class="fil13" d="M796 1494c15,26 42,47 53,73 19,-4 34,-14 46,-27 -9,-22 -25,-37 -37,-57 -13,-5 -43,3 -62,11z"/>
  <path class="fil15" d="M1602 1236c0,-1 -2,-4 -3,-3 0,1 -2,-2 -3,-2l-138 -41c-26,-7 -9,-7 -19,0 20,41 108,73 163,46z"/>
  <path class="fil16" d="M1857 1588l18 2 -3 44 -17 3c10,21 42,22 51,-12 9,-33 6,-57 -9,-79 -24,4 -33,18 -40,42z"/>
  <path class="fil7" d="M1615 1764c27,1 38,11 31,40l-20 7c14,23 19,45 53,39 27,-44 -30,-134 -64,-86z"/>
  <polygon class="fil15" points="1831,1623 1855,1637 1872,1634 1875,1590 1857,1588 1838,1585 "/>
  <path class="fil15" d="M1612 1768c5,22 9,13 11,42l3 1 20 -7c7,-29 -4,-39 -31,-40l-3 4z"/>
  <path class="fil17" d="M1613 1117c26,-19 64,-21 77,28 6,-27 -3,-44 -25,-50 -30,-8 -44,2 -52,22z"/>
  <path class="fil17" d="M1419 1067c42,-23 53,-21 80,20 0,-52 -62,-66 -80,-20z"/>
  <path class="fil18" d="M895 887c7,8 11,11 17,19 11,14 4,10 19,19l8 -22 -18 -26 -26 10z"/>
  <path class="fil18" d="M531 915l7 20 35 -41c-7,-3 -12,-5 -24,-7 -7,12 -10,13 -18,28z"/>
  <path class="fil17" d="M804 1053c16,-18 43,-26 61,9 0,-21 -10,-32 -27,-33 -23,-2 -32,8 -34,24z"/>
  <path class="fil17" d="M623 1055c27,-24 35,-24 62,2 -8,-38 -56,-39 -62,-2z"/>
 </g>
</svg>
